<svg width="1363" height="163" viewBox="0 0 1363 163" fill="none" xmlns="http://www.w3.org/2000/svg">
<path d="M0 15C0 6.71573 6.71573 0 15 0H37V163H15C6.71573 163 0 156.284 0 148V15Z" fill="#EFD87D"/>
<rect width="1097" height="163" transform="translate(37)" fill="#F0F0F0"/>
<path d="M101.906 53.9219L94.3945 51.2383V48.0859L104.602 52.375V54.6367L101.906 53.9219ZM94.3945 56.1719L101.918 53.4297L104.602 52.7852V55.0352L94.3945 59.3242V56.1719ZM119.578 53.5117H115.195L115.172 51.0977H118.852C119.5 51.0977 120.031 51.0156 120.445 50.8516C120.859 50.6797 121.168 50.4336 121.371 50.1133C121.582 49.7852 121.688 49.3867 121.688 48.918C121.688 48.3867 121.586 47.957 121.383 47.6289C121.188 47.3008 120.879 47.0625 120.457 46.9141C120.043 46.7656 119.508 46.6914 118.852 46.6914H116.414V61H112.898V43.9375H118.852C119.844 43.9375 120.73 44.0312 121.512 44.2188C122.301 44.4062 122.969 44.6914 123.516 45.0742C124.062 45.457 124.48 45.9414 124.77 46.5273C125.059 47.1055 125.203 47.793 125.203 48.5898C125.203 49.293 125.043 49.9414 124.723 50.5352C124.41 51.1289 123.914 51.6133 123.234 51.9883C122.562 52.3633 121.684 52.5703 120.598 52.6094L119.578 53.5117ZM119.426 61H114.234L115.605 58.2578H119.426C120.043 58.2578 120.547 58.1602 120.938 57.9648C121.328 57.7617 121.617 57.4883 121.805 57.1445C121.992 56.8008 122.086 56.4062 122.086 55.9609C122.086 55.4609 122 55.0273 121.828 54.6602C121.664 54.293 121.398 54.0117 121.031 53.8164C120.664 53.6133 120.18 53.5117 119.578 53.5117H116.191L116.215 51.0977H120.434L121.242 52.0469C122.281 52.0312 123.117 52.2148 123.75 52.5977C124.391 52.9727 124.855 53.4609 125.145 54.0625C125.441 54.6641 125.59 55.3086 125.59 55.9961C125.59 57.0898 125.352 58.0117 124.875 58.7617C124.398 59.5039 123.699 60.0625 122.777 60.4375C121.863 60.8125 120.746 61 119.426 61ZM134.859 58.1406V52.4922C134.859 52.0859 134.793 51.7383 134.66 51.4492C134.527 51.1523 134.32 50.9219 134.039 50.7578C133.766 50.5938 133.41 50.5117 132.973 50.5117C132.598 50.5117 132.273 50.5781 132 50.7109C131.727 50.8359 131.516 51.0195 131.367 51.2617C131.219 51.4961 131.145 51.7734 131.145 52.0938H127.77C127.77 51.5547 127.895 51.043 128.145 50.5586C128.395 50.0742 128.758 49.6484 129.234 49.2812C129.711 48.9062 130.277 48.6133 130.934 48.4023C131.598 48.1914 132.34 48.0859 133.16 48.0859C134.145 48.0859 135.02 48.25 135.785 48.5781C136.551 48.9062 137.152 49.3984 137.59 50.0547C138.035 50.7109 138.258 51.5312 138.258 52.5156V57.9414C138.258 58.6367 138.301 59.207 138.387 59.6523C138.473 60.0898 138.598 60.4727 138.762 60.8008V61H135.352C135.188 60.6562 135.062 60.2266 134.977 59.7109C134.898 59.1875 134.859 58.6641 134.859 58.1406ZM135.305 53.2773L135.328 55.1875H133.441C132.996 55.1875 132.609 55.2383 132.281 55.3398C131.953 55.4414 131.684 55.5859 131.473 55.7734C131.262 55.9531 131.105 56.1641 131.004 56.4062C130.91 56.6484 130.863 56.9141 130.863 57.2031C130.863 57.4922 130.93 57.7539 131.062 57.9883C131.195 58.2148 131.387 58.3945 131.637 58.5273C131.887 58.6523 132.18 58.7148 132.516 58.7148C133.023 58.7148 133.465 58.6133 133.84 58.4102C134.215 58.207 134.504 57.957 134.707 57.6602C134.918 57.3633 135.027 57.082 135.035 56.8164L135.926 58.2461C135.801 58.5664 135.629 58.8984 135.41 59.2422C135.199 59.5859 134.93 59.9102 134.602 60.2148C134.273 60.5117 133.879 60.7578 133.418 60.9531C132.957 61.1406 132.41 61.2344 131.777 61.2344C130.973 61.2344 130.242 61.0742 129.586 60.7539C128.938 60.4258 128.422 59.9766 128.039 59.4062C127.664 58.8281 127.477 58.1719 127.477 57.4375C127.477 56.7734 127.602 56.1836 127.852 55.668C128.102 55.1523 128.469 54.7188 128.953 54.3672C129.445 54.0078 130.059 53.7383 130.793 53.5586C131.527 53.3711 132.379 53.2773 133.348 53.2773H135.305ZM140.859 43H144.234V58.0938L143.895 61H140.859V43ZM152.262 54.5312V54.7773C152.262 55.7227 152.16 56.5898 151.957 57.3789C151.762 58.168 151.457 58.8516 151.043 59.4297C150.629 60 150.113 60.4453 149.496 60.7656C148.887 61.0781 148.168 61.2344 147.34 61.2344C146.566 61.2344 145.895 61.0781 145.324 60.7656C144.762 60.4531 144.289 60.0117 143.906 59.4414C143.523 58.8711 143.215 58.2031 142.98 57.4375C142.746 56.6719 142.57 55.8359 142.453 54.9297V54.3906C142.57 53.4844 142.746 52.6484 142.98 51.8828C143.215 51.1172 143.523 50.4492 143.906 49.8789C144.289 49.3086 144.762 48.8672 145.324 48.5547C145.887 48.2422 146.551 48.0859 147.316 48.0859C148.152 48.0859 148.879 48.2461 149.496 48.5664C150.121 48.8789 150.637 49.3242 151.043 49.9023C151.457 50.4727 151.762 51.1523 151.957 51.9414C152.16 52.7227 152.262 53.5859 152.262 54.5312ZM148.887 54.7773V54.5312C148.887 54.0156 148.848 53.5312 148.77 53.0781C148.699 52.6172 148.574 52.2148 148.395 51.8711C148.215 51.5195 147.969 51.2422 147.656 51.0391C147.352 50.8359 146.957 50.7344 146.473 50.7344C146.012 50.7344 145.621 50.8125 145.301 50.9688C144.98 51.125 144.715 51.3438 144.504 51.625C144.301 51.9062 144.148 52.2422 144.047 52.6328C143.945 53.0156 143.883 53.4375 143.859 53.8984V55.4336C143.883 56.0508 143.984 56.5977 144.164 57.0742C144.352 57.543 144.633 57.9141 145.008 58.1875C145.391 58.4531 145.887 58.5859 146.496 58.5859C146.973 58.5859 147.367 58.4922 147.68 58.3047C147.992 58.1172 148.234 57.8516 148.406 57.5078C148.586 57.1641 148.711 56.7617 148.781 56.3008C148.852 55.832 148.887 55.3242 148.887 54.7773ZM157.98 59.5703L161.344 48.3203H164.965L159.867 62.9102C159.758 63.2305 159.609 63.5742 159.422 63.9414C159.242 64.3086 158.996 64.6562 158.684 64.9844C158.379 65.3203 157.992 65.5938 157.523 65.8047C157.062 66.0156 156.496 66.1211 155.824 66.1211C155.504 66.1211 155.242 66.1016 155.039 66.0625C154.836 66.0234 154.594 65.9688 154.312 65.8984V63.4258C154.398 63.4258 154.488 63.4258 154.582 63.4258C154.676 63.4336 154.766 63.4375 154.852 63.4375C155.297 63.4375 155.66 63.3867 155.941 63.2852C156.223 63.1836 156.449 63.0273 156.621 62.8164C156.793 62.6133 156.93 62.3477 157.031 62.0195L157.98 59.5703ZM156.574 48.3203L159.328 57.5078L159.809 61.082L157.512 61.3281L152.953 48.3203H156.574ZM177.973 58.2578V61H168.891V58.2578H177.973ZM170.039 43.9375V61H166.523V43.9375H170.039ZM176.789 50.8867V53.5586H168.891V50.8867H176.789ZM177.961 43.9375V46.6914H168.891V43.9375H177.961ZM184.816 58.5977C185.23 58.5977 185.598 58.5195 185.918 58.3633C186.238 58.1992 186.488 57.9727 186.668 57.6836C186.855 57.3867 186.953 57.0391 186.961 56.6406H190.137C190.129 57.5312 189.891 58.3242 189.422 59.0195C188.953 59.707 188.324 60.25 187.535 60.6484C186.746 61.0391 185.863 61.2344 184.887 61.2344C183.902 61.2344 183.043 61.0703 182.309 60.7422C181.582 60.4141 180.977 59.9609 180.492 59.3828C180.008 58.7969 179.645 58.1172 179.402 57.3438C179.16 56.5625 179.039 55.7266 179.039 54.8359V54.4961C179.039 53.5977 179.16 52.7617 179.402 51.9883C179.645 51.207 180.008 50.5273 180.492 49.9492C180.977 49.3633 181.582 48.9062 182.309 48.5781C183.035 48.25 183.887 48.0859 184.863 48.0859C185.902 48.0859 186.812 48.2852 187.594 48.6836C188.383 49.082 189 49.6523 189.445 50.3945C189.898 51.1289 190.129 52 190.137 53.0078H186.961C186.953 52.5859 186.863 52.2031 186.691 51.8594C186.527 51.5156 186.285 51.2422 185.965 51.0391C185.652 50.8281 185.266 50.7227 184.805 50.7227C184.312 50.7227 183.91 50.8281 183.598 51.0391C183.285 51.2422 183.043 51.5234 182.871 51.8828C182.699 52.2344 182.578 52.6367 182.508 53.0898C182.445 53.5352 182.414 54.0039 182.414 54.4961V54.8359C182.414 55.3281 182.445 55.8008 182.508 56.2539C182.57 56.707 182.688 57.1094 182.859 57.4609C183.039 57.8125 183.285 58.0898 183.598 58.293C183.91 58.4961 184.316 58.5977 184.816 58.5977ZM195.387 43V61H192.012V43H195.387ZM194.906 54.2148H193.98C193.988 53.332 194.105 52.5195 194.332 51.7773C194.559 51.0273 194.883 50.3789 195.305 49.832C195.727 49.2773 196.23 48.8477 196.816 48.543C197.41 48.2383 198.066 48.0859 198.785 48.0859C199.41 48.0859 199.977 48.1758 200.484 48.3555C201 48.5273 201.441 48.8086 201.809 49.1992C202.184 49.582 202.473 50.0859 202.676 50.7109C202.879 51.3359 202.98 52.0938 202.98 52.9844V61H199.582V52.9609C199.582 52.3984 199.5 51.957 199.336 51.6367C199.18 51.3086 198.949 51.0781 198.645 50.9453C198.348 50.8047 197.98 50.7344 197.543 50.7344C197.059 50.7344 196.645 50.8242 196.301 51.0039C195.965 51.1836 195.695 51.4336 195.492 51.7539C195.289 52.0664 195.141 52.4336 195.047 52.8555C194.953 53.2773 194.906 53.7305 194.906 54.2148ZM205.008 54.7891V54.543C205.008 53.6133 205.141 52.7578 205.406 51.9766C205.672 51.1875 206.059 50.5039 206.566 49.9258C207.074 49.3477 207.699 48.8984 208.441 48.5781C209.184 48.25 210.035 48.0859 210.996 48.0859C211.957 48.0859 212.812 48.25 213.562 48.5781C214.312 48.8984 214.941 49.3477 215.449 49.9258C215.965 50.5039 216.355 51.1875 216.621 51.9766C216.887 52.7578 217.02 53.6133 217.02 54.543V54.7891C217.02 55.7109 216.887 56.5664 216.621 57.3555C216.355 58.1367 215.965 58.8203 215.449 59.4062C214.941 59.9844 214.316 60.4336 213.574 60.7539C212.832 61.0742 211.98 61.2344 211.02 61.2344C210.059 61.2344 209.203 61.0742 208.453 60.7539C207.711 60.4336 207.082 59.9844 206.566 59.4062C206.059 58.8203 205.672 58.1367 205.406 57.3555C205.141 56.5664 205.008 55.7109 205.008 54.7891ZM208.383 54.543V54.7891C208.383 55.3203 208.43 55.8164 208.523 56.2773C208.617 56.7383 208.766 57.1445 208.969 57.4961C209.18 57.8398 209.453 58.1094 209.789 58.3047C210.125 58.5 210.535 58.5977 211.02 58.5977C211.488 58.5977 211.891 58.5 212.227 58.3047C212.562 58.1094 212.832 57.8398 213.035 57.4961C213.238 57.1445 213.387 56.7383 213.48 56.2773C213.582 55.8164 213.633 55.3203 213.633 54.7891V54.543C213.633 54.0273 213.582 53.543 213.48 53.0898C213.387 52.6289 213.234 52.2227 213.023 51.8711C212.82 51.5117 212.551 51.2305 212.215 51.0273C211.879 50.8242 211.473 50.7227 210.996 50.7227C210.52 50.7227 210.113 50.8242 209.777 51.0273C209.449 51.2305 209.18 51.5117 208.969 51.8711C208.766 52.2227 208.617 52.6289 208.523 53.0898C208.43 53.543 208.383 54.0273 208.383 54.543Z" fill="#888888"/>
<path d="M112.125 84.875V119H103.898V84.875H112.125ZM122.391 84.875V91.2266H93.8672V84.875H122.391ZM135.68 119.469C133.617 119.469 131.773 119.148 130.148 118.508C128.523 117.852 127.148 116.953 126.023 115.812C124.914 114.672 124.062 113.359 123.469 111.875C122.891 110.391 122.602 108.82 122.602 107.164V106.273C122.602 104.414 122.859 102.695 123.375 101.117C123.891 99.5234 124.656 98.1328 125.672 96.9453C126.688 95.7578 127.961 94.8359 129.492 94.1797C131.023 93.5078 132.805 93.1719 134.836 93.1719C136.633 93.1719 138.242 93.4609 139.664 94.0391C141.086 94.6172 142.289 95.4453 143.273 96.5234C144.273 97.6016 145.031 98.9062 145.547 100.438C146.078 101.969 146.344 103.688 146.344 105.594V108.805H125.625V103.859H138.633V103.25C138.648 102.406 138.5 101.688 138.188 101.094C137.891 100.5 137.453 100.047 136.875 99.7344C136.297 99.4219 135.594 99.2656 134.766 99.2656C133.906 99.2656 133.195 99.4531 132.633 99.8281C132.086 100.203 131.656 100.719 131.344 101.375C131.047 102.016 130.836 102.758 130.711 103.602C130.586 104.445 130.523 105.336 130.523 106.273V107.164C130.523 108.102 130.648 108.953 130.898 109.719C131.164 110.484 131.539 111.141 132.023 111.688C132.523 112.219 133.117 112.633 133.805 112.93C134.508 113.227 135.305 113.375 136.195 113.375C137.273 113.375 138.336 113.172 139.383 112.766C140.43 112.359 141.328 111.688 142.078 110.75L145.664 115.016C145.148 115.75 144.414 116.461 143.461 117.148C142.523 117.836 141.398 118.398 140.086 118.836C138.773 119.258 137.305 119.469 135.68 119.469ZM160.266 113.375C161 113.375 161.625 113.242 162.141 112.977C162.672 112.695 163.07 112.305 163.336 111.805C163.617 111.289 163.75 110.672 163.734 109.953H171.164C171.18 111.859 170.711 113.531 169.758 114.969C168.82 116.391 167.539 117.5 165.914 118.297C164.305 119.078 162.484 119.469 160.453 119.469C158.469 119.469 156.734 119.148 155.25 118.508C153.766 117.852 152.523 116.945 151.523 115.789C150.539 114.617 149.797 113.25 149.297 111.688C148.812 110.125 148.57 108.43 148.57 106.602V106.062C148.57 104.234 148.812 102.539 149.297 100.977C149.797 99.3984 150.539 98.0312 151.523 96.875C152.523 95.7031 153.758 94.7969 155.227 94.1562C156.711 93.5 158.438 93.1719 160.406 93.1719C162.516 93.1719 164.375 93.5703 165.984 94.3672C167.609 95.1641 168.883 96.3203 169.805 97.8359C170.727 99.3516 171.18 101.188 171.164 103.344H163.734C163.75 102.578 163.633 101.891 163.383 101.281C163.133 100.672 162.742 100.188 162.211 99.8281C161.695 99.4531 161.031 99.2656 160.219 99.2656C159.406 99.2656 158.75 99.4453 158.25 99.8047C157.75 100.164 157.367 100.664 157.102 101.305C156.852 101.93 156.68 102.648 156.586 103.461C156.508 104.273 156.469 105.141 156.469 106.062V106.602C156.469 107.539 156.508 108.422 156.586 109.25C156.68 110.062 156.859 110.781 157.125 111.406C157.391 112.016 157.773 112.5 158.273 112.859C158.773 113.203 159.438 113.375 160.266 113.375ZM182.273 83V119H174.375V83H182.273ZM181.336 105.453L179.484 105.5C179.484 103.719 179.703 102.078 180.141 100.578C180.578 99.0781 181.203 97.7734 182.016 96.6641C182.828 95.5547 183.805 94.6953 184.945 94.0859C186.086 93.4766 187.352 93.1719 188.742 93.1719C189.992 93.1719 191.133 93.3516 192.164 93.7109C193.211 94.0703 194.109 94.6484 194.859 95.4453C195.625 96.2422 196.211 97.2812 196.617 98.5625C197.039 99.8438 197.25 101.406 197.25 103.25V119H189.305V103.203C189.305 102.172 189.156 101.375 188.859 100.812C188.578 100.234 188.172 99.8359 187.641 99.6172C187.109 99.3828 186.461 99.2656 185.695 99.2656C184.773 99.2656 184.023 99.4219 183.445 99.7344C182.867 100.047 182.422 100.484 182.109 101.047C181.812 101.594 181.609 102.242 181.5 102.992C181.391 103.742 181.336 104.562 181.336 105.453ZM231.539 109.93C231.539 109.398 231.461 108.922 231.305 108.5C231.148 108.062 230.859 107.656 230.438 107.281C230.016 106.906 229.406 106.531 228.609 106.156C227.828 105.766 226.797 105.359 225.516 104.938C224.016 104.438 222.57 103.875 221.18 103.25C219.789 102.609 218.547 101.867 217.453 101.023C216.359 100.164 215.492 99.1641 214.852 98.0234C214.211 96.8672 213.891 95.5234 213.891 93.9922C213.891 92.5234 214.219 91.2031 214.875 90.0312C215.531 88.8438 216.445 87.8359 217.617 87.0078C218.805 86.1641 220.195 85.5234 221.789 85.0859C223.383 84.6328 225.125 84.4062 227.016 84.4062C229.516 84.4062 231.719 84.8438 233.625 85.7188C235.547 86.5781 237.047 87.8047 238.125 89.3984C239.219 90.9766 239.766 92.8438 239.766 95H231.586C231.586 94.1406 231.406 93.3828 231.047 92.7266C230.703 92.0703 230.18 91.5547 229.477 91.1797C228.773 90.8047 227.891 90.6172 226.828 90.6172C225.797 90.6172 224.93 90.7734 224.227 91.0859C223.523 91.3984 222.992 91.8203 222.633 92.3516C222.273 92.8672 222.094 93.4375 222.094 94.0625C222.094 94.5781 222.234 95.0469 222.516 95.4688C222.812 95.875 223.227 96.2578 223.758 96.6172C224.305 96.9766 224.961 97.3203 225.727 97.6484C226.508 97.9766 227.383 98.2969 228.352 98.6094C230.164 99.1875 231.773 99.8359 233.18 100.555C234.602 101.258 235.797 102.062 236.766 102.969C237.75 103.859 238.492 104.875 238.992 106.016C239.508 107.156 239.766 108.445 239.766 109.883C239.766 111.414 239.469 112.773 238.875 113.961C238.281 115.148 237.43 116.156 236.32 116.984C235.211 117.797 233.883 118.414 232.336 118.836C230.789 119.258 229.062 119.469 227.156 119.469C225.406 119.469 223.68 119.25 221.977 118.812C220.289 118.359 218.758 117.672 217.383 116.75C216.008 115.812 214.906 114.617 214.078 113.164C213.266 111.695 212.859 109.953 212.859 107.938H221.109C221.109 108.938 221.242 109.781 221.508 110.469C221.773 111.156 222.164 111.711 222.68 112.133C223.195 112.539 223.828 112.836 224.578 113.023C225.328 113.195 226.188 113.281 227.156 113.281C228.203 113.281 229.047 113.133 229.688 112.836C230.328 112.523 230.797 112.117 231.094 111.617C231.391 111.102 231.539 110.539 231.539 109.93ZM256.992 93.6406V99.125H241.711V93.6406H256.992ZM244.922 87.3359H252.82V110.727C252.82 111.398 252.898 111.922 253.055 112.297C253.211 112.656 253.477 112.914 253.852 113.07C254.242 113.211 254.758 113.281 255.398 113.281C255.852 113.281 256.227 113.273 256.523 113.258C256.82 113.227 257.102 113.188 257.367 113.141V118.789C256.695 119.008 255.992 119.172 255.258 119.281C254.523 119.406 253.742 119.469 252.914 119.469C251.227 119.469 249.781 119.203 248.578 118.672C247.391 118.141 246.484 117.305 245.859 116.164C245.234 115.023 244.922 113.539 244.922 111.711V87.3359ZM273.305 112.625V102.172C273.305 101.453 273.203 100.836 273 100.32C272.797 99.8047 272.477 99.4062 272.039 99.125C271.602 98.8281 271.016 98.6797 270.281 98.6797C269.688 98.6797 269.18 98.7812 268.758 98.9844C268.336 99.1875 268.016 99.4922 267.797 99.8984C267.578 100.305 267.469 100.82 267.469 101.445H259.57C259.57 100.273 259.828 99.1875 260.344 98.1875C260.875 97.1719 261.625 96.2891 262.594 95.5391C263.578 94.7891 264.75 94.2109 266.109 93.8047C267.484 93.3828 269.016 93.1719 270.703 93.1719C272.719 93.1719 274.516 93.5078 276.094 94.1797C277.688 94.8516 278.945 95.8594 279.867 97.2031C280.789 98.5312 281.25 100.203 281.25 102.219V112.602C281.25 114.258 281.344 115.516 281.531 116.375C281.719 117.219 281.984 117.961 282.328 118.602V119H274.406C274.031 118.219 273.75 117.266 273.562 116.141C273.391 115 273.305 113.828 273.305 112.625ZM274.266 103.508L274.312 107.727H270.82C270.086 107.727 269.461 107.828 268.945 108.031C268.445 108.234 268.039 108.516 267.727 108.875C267.43 109.219 267.211 109.609 267.07 110.047C266.945 110.484 266.883 110.945 266.883 111.43C266.883 111.898 266.992 112.32 267.211 112.695C267.445 113.055 267.758 113.336 268.148 113.539C268.539 113.742 268.977 113.844 269.461 113.844C270.336 113.844 271.078 113.68 271.688 113.352C272.312 113.008 272.789 112.594 273.117 112.109C273.445 111.625 273.609 111.172 273.609 110.75L275.344 113.984C275.031 114.609 274.672 115.242 274.266 115.883C273.875 116.523 273.383 117.117 272.789 117.664C272.211 118.195 271.5 118.633 270.656 118.977C269.812 119.305 268.789 119.469 267.586 119.469C266.023 119.469 264.586 119.148 263.273 118.508C261.977 117.867 260.938 116.977 260.156 115.836C259.375 114.68 258.984 113.352 258.984 111.852C258.984 110.539 259.219 109.367 259.688 108.336C260.172 107.305 260.898 106.43 261.867 105.711C262.836 104.992 264.07 104.445 265.57 104.07C267.07 103.695 268.836 103.508 270.867 103.508H274.266ZM296.344 113.375C297.078 113.375 297.703 113.242 298.219 112.977C298.75 112.695 299.148 112.305 299.414 111.805C299.695 111.289 299.828 110.672 299.812 109.953H307.242C307.258 111.859 306.789 113.531 305.836 114.969C304.898 116.391 303.617 117.5 301.992 118.297C300.383 119.078 298.562 119.469 296.531 119.469C294.547 119.469 292.812 119.148 291.328 118.508C289.844 117.852 288.602 116.945 287.602 115.789C286.617 114.617 285.875 113.25 285.375 111.688C284.891 110.125 284.648 108.43 284.648 106.602V106.062C284.648 104.234 284.891 102.539 285.375 100.977C285.875 99.3984 286.617 98.0312 287.602 96.875C288.602 95.7031 289.836 94.7969 291.305 94.1562C292.789 93.5 294.516 93.1719 296.484 93.1719C298.594 93.1719 300.453 93.5703 302.062 94.3672C303.688 95.1641 304.961 96.3203 305.883 97.8359C306.805 99.3516 307.258 101.188 307.242 103.344H299.812C299.828 102.578 299.711 101.891 299.461 101.281C299.211 100.672 298.82 100.188 298.289 99.8281C297.773 99.4531 297.109 99.2656 296.297 99.2656C295.484 99.2656 294.828 99.4453 294.328 99.8047C293.828 100.164 293.445 100.664 293.18 101.305C292.93 101.93 292.758 102.648 292.664 103.461C292.586 104.273 292.547 105.141 292.547 106.062V106.602C292.547 107.539 292.586 108.422 292.664 109.25C292.758 110.062 292.938 110.781 293.203 111.406C293.469 112.016 293.852 112.5 294.352 112.859C294.852 113.203 295.516 113.375 296.344 113.375ZM318.586 82.9766V119H310.688V82.9766H318.586ZM334.805 93.6406L323.789 106.555L318.023 112.32L314.578 107.305L319.383 101.047L325.336 93.6406H334.805ZM326.344 119L319.57 107.445L325.406 103.297L335.391 119H326.344ZM350.156 111.875C350.156 111.438 350.008 111.062 349.711 110.75C349.43 110.422 348.93 110.125 348.211 109.859C347.492 109.578 346.484 109.297 345.188 109.016C343.953 108.75 342.789 108.398 341.695 107.961C340.617 107.523 339.672 106.992 338.859 106.367C338.047 105.742 337.406 105 336.938 104.141C336.484 103.281 336.258 102.297 336.258 101.188C336.258 100.109 336.484 99.0938 336.938 98.1406C337.406 97.1719 338.086 96.3203 338.977 95.5859C339.883 94.8359 340.984 94.25 342.281 93.8281C343.578 93.3906 345.055 93.1719 346.711 93.1719C348.992 93.1719 350.961 93.5234 352.617 94.2266C354.273 94.9141 355.547 95.8828 356.438 97.1328C357.344 98.3672 357.797 99.7969 357.797 101.422H349.898C349.898 100.781 349.789 100.234 349.57 99.7812C349.367 99.3281 349.031 98.9844 348.562 98.75C348.094 98.5 347.469 98.375 346.688 98.375C346.141 98.375 345.641 98.4766 345.188 98.6797C344.75 98.8828 344.398 99.1641 344.133 99.5234C343.867 99.8828 343.734 100.305 343.734 100.789C343.734 101.133 343.812 101.445 343.969 101.727C344.141 101.992 344.398 102.242 344.742 102.477C345.086 102.695 345.523 102.898 346.055 103.086C346.586 103.258 347.227 103.414 347.977 103.555C349.68 103.867 351.273 104.312 352.758 104.891C354.242 105.469 355.445 106.289 356.367 107.352C357.305 108.414 357.773 109.844 357.773 111.641C357.773 112.766 357.516 113.805 357 114.758C356.484 115.695 355.742 116.523 354.773 117.242C353.805 117.945 352.641 118.492 351.281 118.883C349.922 119.273 348.391 119.469 346.688 119.469C344.266 119.469 342.219 119.039 340.547 118.18C338.875 117.305 337.609 116.211 336.75 114.898C335.906 113.57 335.484 112.227 335.484 110.867H342.844C342.875 111.648 343.062 112.289 343.406 112.789C343.766 113.289 344.242 113.656 344.836 113.891C345.43 114.125 346.117 114.242 346.898 114.242C347.617 114.242 348.211 114.141 348.68 113.938C349.164 113.734 349.531 113.461 349.781 113.117C350.031 112.758 350.156 112.344 350.156 111.875Z" fill="black"/>
<path d="M1134 0H1348C1356.28 0 1363 6.71573 1363 15V148C1363 156.284 1356.28 163 1348 163H1134V0Z" fill="#EF8D7F"/>
<path fill-rule="evenodd" clip-rule="evenodd" d="M1219.98 53C1219.85 53 1219.73 53.0527 1219.64 53.1464C1219.55 53.2402 1219.5 53.3674 1219.5 53.5V109.5C1219.5 109.633 1219.55 109.76 1219.64 109.854C1219.73 109.947 1219.85 110 1219.98 110H1277.02C1277.15 110 1277.27 109.947 1277.36 109.854C1277.45 109.76 1277.5 109.633 1277.5 109.5V64C1277.5 63.8674 1277.45 63.7402 1277.36 63.6464C1277.27 63.5527 1277.15 63.5 1277.02 63.5H1248.5C1247.65 63.5 1246.84 63.1045 1246.29 62.4206L1238.77 53H1219.98ZM1215.58 48.9038C1216.74 47.6848 1218.33 47 1219.98 47H1240.11C1240.97 47 1241.77 47.3955 1242.32 48.0794L1249.85 57.5H1277.02C1278.67 57.5 1280.26 58.1848 1281.42 59.4038C1282.59 60.6228 1283.25 62.2761 1283.25 64V109.5C1283.25 111.224 1282.59 112.877 1281.42 114.096C1280.26 115.315 1278.67 116 1277.02 116H1219.98C1218.33 116 1216.74 115.315 1215.58 114.096C1214.41 112.877 1213.75 111.224 1213.75 109.5V53.5C1213.75 51.7761 1214.41 50.1228 1215.58 48.9038Z" fill="#EFD87D"/>
<path fill-rule="evenodd" clip-rule="evenodd" d="M1244.16 75.5251C1245.47 76.892 1245.47 79.108 1244.16 80.4749L1238.15 86.75L1244.16 93.0251C1245.47 94.392 1245.47 96.608 1244.16 97.9749C1242.85 99.3417 1240.73 99.3417 1239.42 97.9749L1231.03 89.2249C1229.72 87.858 1229.72 85.642 1231.03 84.2751L1239.42 75.5251C1240.73 74.1583 1242.85 74.1583 1244.16 75.5251Z" fill="#EFD87D"/>
<path fill-rule="evenodd" clip-rule="evenodd" d="M1252.12 97.9749C1250.81 96.608 1250.81 94.392 1252.12 93.0251L1258.13 86.75L1252.12 80.4749C1250.81 79.108 1250.81 76.892 1252.12 75.5251C1253.43 74.1583 1255.55 74.1583 1256.86 75.5251L1265.25 84.2751C1266.56 85.642 1266.56 87.858 1265.25 89.2249L1256.86 97.9749C1255.55 99.3417 1253.43 99.3417 1252.12 97.9749Z" fill="#EFD87D"/>
</svg>
